<?xml version="1.0" encoding="UTF-8"?>
<svg width="242px" height="71px" viewBox="0 0 242 71" version="1.1" xmlns="http://www.w3.org/2000/svg" xmlns:xlink="http://www.w3.org/1999/xlink">
    <!-- Generator: Sketch 52.6 (67491) - http://www.bohemiancoding.com/sketch -->
    <title>Artboard</title>
    <desc>Created with Sketch.</desc>
    <defs>
        <polygon id="path-1" points="0.495 0.008 139.981 0.008 139.981 41.303 0.495 41.303"></polygon>
        <polygon id="path-3" points="0.547 0.128 22.728 0.128 22.728 13.94 0.547 13.94"></polygon>
    </defs>
    <g id="Artboard" stroke="none" stroke-width="1" fill="none" fill-rule="evenodd">
        <polyline id="Fill-1" fill="#3B4143" points="168.741 12 162.937 29.356 157.371 12.216 157.298 12 151.603 12 145.968 29.356 140.238 12.216 140.164 12 133 12 142.82 41.462 142.867 41.611 148.73 41.611 154.479 23.975 160.155 41.391 160.225 41.611 166.032 41.611 175.829 12.413 175.967 12 168.741 12"></polyline>
        <path d="M21.602,17.249 L21.602,24.405 L33.652,24.405 L33.544,24.847 C32.115,30.75 27.287,34.566 21.244,34.566 C13.986,34.566 8.514,28.815 8.514,21.189 C8.514,13.593 14.106,7.644 21.244,7.644 C24.677,7.644 27.868,9.041 30.273,11.587 L36.074,5.971 C32.083,2.117 26.832,0 21.244,0 C9.33,0 0,9.308 0,21.189 C0,32.975 9.33,42.207 21.244,42.207 C32.959,42.207 42.49,32.78 42.49,21.189 C42.49,19.561 42.407,18.24 42.243,17.249 L21.602,17.249" id="Fill-2" fill="#12B8DF"></path>
        <path d="M91.108,1 L83.769,5.251 L83.769,12.216 L80,12.216 L80,18.848 L83.769,18.848 L83.769,30.586 C83.769,37.843 87.508,42.257 94.874,42.257 C96.811,42.257 98.155,42.043 99.177,41.827 L99.177,35.481 C98.209,35.642 97.348,35.749 96.488,35.749 C93.046,35.749 91.108,34.189 91.108,30.209 L91.108,18.848 L99.177,18.848 L99.177,12.216 L91.108,12.216 L91.108,1" id="Fill-3" fill="#3B4143"></path>
        <path d="M60.735,36.183 C55.915,36.183 52.282,32.427 52.282,27.442 C52.282,22.46 55.915,18.702 60.735,18.702 C65.716,18.702 69.474,22.46 69.474,27.442 C69.474,32.427 65.716,36.183 60.735,36.183 M68.954,16.184 C67.528,13.616 64.057,12 59.805,12 C51.504,12 45,18.783 45,27.442 C45,36.103 51.504,42.886 59.805,42.886 C64.057,42.886 67.528,41.27 68.954,38.702 L69.474,42.247 L76.293,42.247 L76.293,12.636 L69.474,12.636 L68.954,16.184" id="Fill-4" fill="#3B4143"></path>
        <path d="M190.734,36.183 C185.915,36.183 182.282,32.427 182.282,27.442 C182.282,22.46 185.915,18.702 190.734,18.702 C195.716,18.702 199.474,22.46 199.474,27.442 C199.474,32.427 195.716,36.183 190.734,36.183 M198.952,16.184 C197.525,13.616 194.057,12 189.803,12 C181.504,12 175,18.783 175,27.442 C175,36.103 181.504,42.886 189.803,42.886 C194.057,42.886 197.525,41.27 198.952,38.702 L199.474,42.247 L206.291,42.247 L206.291,12.636 L199.474,12.636 L198.952,16.184" id="Fill-5" fill="#3B4143"></path>
        <g id="Group-9" transform="translate(102.000000, 12.000000)">
            <mask id="mask-2" fill="white">
                <use xlink:href="#path-1"></use>
            </mask>
            <g id="Clip-7"></g>
            <path d="M8.129,12.116 C8.6,8.928 11.952,6.462 15.88,6.462 C19.56,6.462 22.611,8.977 22.803,12.116 L8.129,12.116 Z M15.88,0.008 C6.821,0.008 0.495,6.386 0.495,15.512 L0.495,15.741 C0.495,24.807 6.745,30.896 16.052,30.896 C21.103,30.896 25.018,29.231 28.379,25.661 L28.597,25.435 L24.036,21.004 L23.816,21.228 C21.889,23.155 19.867,24.448 16.281,24.448 C11.557,24.448 8.302,21.744 7.945,17.537 L30.265,17.537 L30.291,17.256 C30.404,16.108 30.404,14.839 30.404,14.823 C30.404,6.237 24.294,0.008 15.88,0.008 Z" id="Fill-6" fill="#3B4143" mask="url(#mask-2)"></path>
            <polyline id="Fill-8" fill="#3B4143" mask="url(#mask-2)" points="132.24 0.646 123.797 21.223 115.582 0.646 107.839 0.646 119.837 30.263 115.251 40.855 115.037 41.303 122.739 41.303 139.8 1.084 139.982 0.646 132.24 0.646"></polyline>
        </g>
        <polyline id="Fill-10" fill="#3B4143" points="1 53 9.132 53 9.132 54.381 2.694 54.381 2.694 59.304 7.711 59.304 7.711 60.683 2.694 60.683 2.694 66.908 1 66.908 1 53"></polyline>
        <path d="M10,57.175 L11.613,57.175 L11.613,59.003 C12.255,57.856 13.132,57.058 14.96,57 L14.96,58.518 C12.917,58.614 11.613,59.257 11.613,61.766 L11.613,67.348 L10,67.348 L10,57.175" id="Fill-11" fill="#3B4143"></path>
        <path d="M24.327,62.35 L24.327,62.213 C24.327,59.86 23.024,58.344 21,58.344 C18.957,58.344 17.673,59.86 17.673,62.193 L17.673,62.35 C17.673,64.666 18.939,66.184 21,66.184 C23.043,66.184 24.327,64.647 24.327,62.35 M16,62.35 L16,62.193 C16,59.141 18.12,57 21,57 C23.88,57 26,59.121 26,62.175 L26,62.331 C26,65.405 23.88,67.525 20.981,67.525 C18.082,67.525 16,65.327 16,62.35" id="Fill-12" fill="#3B4143"></path>
        <path d="M28,57.175 L29.615,57.175 L29.615,58.733 C30.081,57.779 31.189,57 32.65,57 C33.954,57 35.1,57.544 35.625,58.908 C36.327,57.584 37.843,57 39.109,57 C40.937,57 42.533,58.089 42.533,61.046 L42.533,67.348 L40.918,67.348 L40.918,60.929 C40.918,59.14 40.158,58.401 38.759,58.401 C37.435,58.401 36.074,59.295 36.074,61.122 L36.074,67.348 L34.459,67.348 L34.459,60.929 C34.459,59.14 33.699,58.401 32.299,58.401 C30.975,58.401 29.615,59.295 29.615,61.122 L29.615,67.348 L28,67.348 L28,57.175" id="Fill-13" fill="#3B4143"></path>
        <polygon id="Fill-14" fill="#3B4143" points="50 67.408 53.172 67.408 53.172 53.5 50 53.5"></polygon>
        <path d="M55,57.233 L57.821,57.233 L57.821,58.848 C58.328,57.837 59.436,57 61.129,57 C63.133,57 64.554,58.206 64.554,60.93 L64.554,67.406 L61.732,67.406 L61.732,61.337 C61.732,59.955 61.187,59.296 59.941,59.296 C58.737,59.296 57.821,60.035 57.821,61.532 L57.821,67.406 L55,67.406 L55,57.233" id="Fill-15" fill="#3B4143"></path>
        <path d="M67,57.233 L69.821,57.233 L69.821,58.848 C70.326,57.837 71.435,57 73.129,57 C75.132,57 76.553,58.206 76.553,60.93 L76.553,67.406 L73.732,67.406 L73.732,61.337 C73.732,59.955 73.186,59.296 71.942,59.296 C70.736,59.296 69.821,60.035 69.821,61.532 L69.821,67.406 L67,67.406 L67,57.233" id="Fill-16" fill="#3B4143"></path>
        <path d="M85.861,62.388 L85.861,62.251 C85.861,60.306 84.947,59.14 83.37,59.14 C81.815,59.14 80.88,60.267 80.88,62.213 L80.88,62.37 C80.88,64.314 81.775,65.482 83.37,65.482 C84.947,65.482 85.861,64.314 85.861,62.388 M78,62.426 L78,62.271 C78,59.081 80.316,57 83.37,57 C86.425,57 88.721,59.041 88.721,62.213 L88.721,62.37 C88.721,65.579 86.406,67.622 83.351,67.622 C80.316,67.622 78,65.598 78,62.426" id="Fill-17" fill="#3B4143"></path>
        <polyline id="Fill-18" fill="#3B4143" points="89 57 92.016 57 94.449 64.276 96.862 57 99.585 57 95.888 67.173 92.716 67.173 89 57"></polyline>
        <path d="M106.441,63.849 L106.441,62.993 L105.35,62.993 C103.716,62.993 102.765,63.342 102.765,64.432 C102.765,65.172 103.211,65.658 104.244,65.658 C105.488,65.658 106.441,64.977 106.441,63.849 M100,64.586 C100,62.215 102.18,61.319 105.292,61.319 L106.441,61.319 L106.441,60.911 C106.441,59.705 106.072,59.042 104.787,59.042 C103.679,59.042 103.174,59.604 103.057,60.482 L100.392,60.482 C100.567,58.07 102.472,57 104.962,57 C107.453,57 109.223,58.014 109.223,60.773 L109.223,67.408 L106.481,67.408 L106.481,66.182 C105.897,67.001 105.002,67.623 103.409,67.623 C101.558,67.623 100,66.728 100,64.586" id="Fill-19" fill="#3B4143"></path>
        <path d="M111.305,64.358 L111.305,59.203 L110,59.203 L110,57.199 L111.305,57.199 L111.305,55 L114.109,55 L114.109,57.199 L116.25,57.199 L116.25,59.203 L114.109,59.203 L114.109,64.106 C114.109,64.922 114.517,65.312 115.236,65.312 C115.664,65.312 115.975,65.252 116.305,65.119 L116.305,67.297 C115.916,67.432 115.353,67.567 114.593,67.567 C112.454,67.567 111.305,66.479 111.305,64.358" id="Fill-20" fill="#3B4143"></path>
        <path d="M118.213,67.631 L121.015,67.631 L121.015,57.458 L118.213,57.458 L118.213,67.631 Z M118,54.538 C118,53.664 118.698,53 119.594,53 C120.508,53 121.21,53.664 121.21,54.538 C121.21,55.415 120.508,56.074 119.594,56.074 C118.698,56.074 118,55.415 118,54.538 Z" id="Fill-21" fill="#3B4143"></path>
        <path d="M129.859,62.388 L129.859,62.251 C129.859,60.306 128.945,59.14 127.368,59.14 C125.813,59.14 124.878,60.267 124.878,62.213 L124.878,62.37 C124.878,64.314 125.771,65.482 127.368,65.482 C128.945,65.482 129.859,64.314 129.859,62.388 M122,62.426 L122,62.271 C122,59.081 124.316,57 127.368,57 C130.425,57 132.722,59.041 132.722,62.213 L132.722,62.37 C132.722,65.579 130.402,67.622 127.349,67.622 C124.316,67.622 122,65.598 122,62.426" id="Fill-22" fill="#3B4143"></path>
        <path d="M135,57.233 L137.823,57.233 L137.823,58.848 C138.329,57.837 139.438,57 141.129,57 C143.133,57 144.555,58.206 144.555,60.93 L144.555,67.406 L141.732,67.406 L141.732,61.337 C141.732,59.955 141.187,59.296 139.943,59.296 C138.739,59.296 137.823,60.035 137.823,61.532 L137.823,67.406 L135,67.406 L135,57.233" id="Fill-23" fill="#3B4143"></path>
        <path d="M150,60.256 L150,60.103 C150,55.918 152.976,53 157.081,53 C160.174,53 162.938,54.419 163.268,57.863 L160.134,57.863 C159.862,56.23 158.792,55.49 157.119,55.49 C154.708,55.49 153.285,57.301 153.285,60.141 L153.285,60.296 C153.285,62.981 154.436,64.908 157.159,64.908 C159.492,64.908 160.448,63.565 160.505,61.967 L157.373,61.967 L157.373,59.672 L163.619,59.672 L163.619,61.154 C163.619,64.87 161.245,67.339 157.081,67.339 C152.533,67.339 150,64.382 150,60.256" id="Fill-24" fill="#3B4143"></path>
        <path d="M165,57.155 L167.82,57.155 L167.82,59.101 C168.464,57.737 169.456,57.018 171.109,57 L171.109,59.625 C169.026,59.605 167.82,60.287 167.82,62.232 L167.82,67.328 L165,67.328 L165,57.155" id="Fill-25" fill="#3B4143"></path>
        <path d="M179.86,62.388 L179.86,62.251 C179.86,60.306 178.947,59.14 177.371,59.14 C175.816,59.14 174.881,60.267 174.881,62.213 L174.881,62.37 C174.881,64.314 175.776,65.482 177.371,65.482 C178.947,65.482 179.86,64.314 179.86,62.388 M172,62.426 L172,62.271 C172,59.081 174.318,57 177.371,57 C180.426,57 182.722,59.041 182.722,62.213 L182.722,62.37 C182.722,65.579 180.406,67.622 177.352,67.622 C174.318,67.622 172,65.598 172,62.426" id="Fill-26" fill="#3B4143"></path>
        <g id="Group-30" transform="translate(184.000000, 57.000000)">
            <mask id="mask-4" fill="white">
                <use xlink:href="#path-3"></use>
            </mask>
            <g id="Clip-28"></g>
            <path d="M0.547,6.917 L0.547,0.361 L3.347,0.361 L3.347,6.53 C3.347,7.91 3.913,8.571 5.118,8.571 C6.306,8.571 7.242,7.832 7.242,6.335 L7.242,0.361 L10.038,0.361 L10.038,10.535 L7.242,10.535 L7.242,8.941 C6.714,9.97 5.682,10.751 4.009,10.751 C2.023,10.751 0.547,9.583 0.547,6.917" id="Fill-27" fill="#3B4143" mask="url(#mask-4)"></path>
            <path d="M19.869,5.516 L19.869,5.361 C19.869,3.298 18.857,2.288 17.436,2.288 C15.958,2.288 14.946,3.318 14.946,5.361 L14.946,5.516 C14.946,7.559 15.919,8.551 17.457,8.551 C19.011,8.551 19.869,7.499 19.869,5.516 M12.222,0.361 L15.044,0.361 L15.044,1.956 C15.608,0.985 16.791,0.128 18.292,0.128 C20.783,0.128 22.728,1.976 22.728,5.341 L22.728,5.498 C22.728,8.863 20.821,10.75 18.292,10.75 C16.716,10.75 15.567,9.972 15.044,8.98 L15.044,14 L12.222,14 L12.222,0.361" id="Fill-29" fill="#3B4143" mask="url(#mask-4)"></path>
        </g>
    </g>
</svg>